<?xml version="1.0" encoding="UTF-8" standalone="no"?>
<!-- Created with Inkscape (http://www.inkscape.org/) -->

<svg
   width="100.97958mm"
   height="111.36401mm"
   viewBox="0 0 100.97957 111.36402"
   version="1.1"
   id="svg5"
   inkscape:version="1.1 (c4e8f9ed74, 2021-05-24)"
   sodipodi:docname="hollow knight beautyline logo by me.svg"
   inkscape:export-filename="/home/existingdude/Downloads/hollow knight beautyline logo by me yay.png"
   inkscape:export-xdpi="96"
   inkscape:export-ydpi="96"
   xmlns:inkscape="http://www.inkscape.org/namespaces/inkscape"
   xmlns:sodipodi="http://sodipodi.sourceforge.net/DTD/sodipodi-0.dtd"
   xmlns:xlink="http://www.w3.org/1999/xlink"
   xmlns="http://www.w3.org/2000/svg"
   xmlns:svg="http://www.w3.org/2000/svg">
  <sodipodi:namedview
     id="namedview7"
     pagecolor="#ffffff"
     bordercolor="#666666"
     borderopacity="1.0"
     inkscape:pageshadow="2"
     inkscape:pageopacity="0"
     inkscape:pagecheckerboard="0"
     inkscape:document-units="mm"
     showgrid="false"
     inkscape:zoom="1.0729879"
     inkscape:cx="-102.98345"
     inkscape:cy="229.26632"
     inkscape:window-width="1920"
     inkscape:window-height="1016"
     inkscape:window-x="0"
     inkscape:window-y="0"
     inkscape:window-maximized="1"
     inkscape:current-layer="layer1" />
  <defs
     id="defs2">
    <linearGradient
       inkscape:collect="always"
       id="linearGradient26772">
      <stop
         style="stop-color:#ffffff;stop-opacity:1;"
         offset="0"
         id="stop26768" />
      <stop
         style="stop-color:#8d8d8d;stop-opacity:1"
         offset="1"
         id="stop26770" />
    </linearGradient>
    <linearGradient
       inkscape:collect="always"
       id="linearGradient19904">
      <stop
         style="stop-color:#ffffff;stop-opacity:1;"
         offset="0"
         id="stop19900" />
      <stop
         style="stop-color:#dadada;stop-opacity:1"
         offset="1"
         id="stop19902" />
    </linearGradient>
    <linearGradient
       inkscape:collect="always"
       xlink:href="#linearGradient26772"
       id="linearGradient18773"
       x1="48.84267"
       y1="60.437336"
       x2="144.57074"
       y2="168.06093"
       gradientUnits="userSpaceOnUse" />
    <linearGradient
       inkscape:collect="always"
       xlink:href="#linearGradient26772"
       id="linearGradient18775"
       x1="68.299088"
       y1="135.78629"
       x2="89.040428"
       y2="157.5081"
       gradientUnits="userSpaceOnUse"
       gradientTransform="translate(1.0583333)" />
    <linearGradient
       inkscape:collect="always"
       xlink:href="#linearGradient19904"
       id="linearGradient18777"
       x1="104.56035"
       y1="135.26816"
       x2="124.31791"
       y2="145.45937"
       gradientUnits="userSpaceOnUse" />
    <linearGradient
       inkscape:collect="always"
       xlink:href="#linearGradient26772"
       id="linearGradient24384"
       gradientUnits="userSpaceOnUse"
       x1="104.56035"
       y1="135.26816"
       x2="122.99733"
       y2="152.85991" />
  </defs>
  <g
     inkscape:label="Layer 1"
     inkscape:groupmode="layer"
     id="layer1"
     transform="translate(-46.676213,-58.698092)">
    <path
       style="fill:#ffffff;fill-opacity:0;stroke:url(#linearGradient18773);stroke-width:5;stroke-linecap:butt;stroke-linejoin:miter;stroke-miterlimit:4;stroke-dasharray:none;stroke-opacity:1"
       d="m 80.202482,62.913275 c 1.659957,-3.301456 -14.34636,-2.489474 -23.936876,8.526572 -2.979881,3.422808 -5.922998,7.642748 -6.701353,13.28254 -2.970121,21.520843 11.630873,27.098923 11.331954,30.829483 0.59506,6.07548 -0.03108,6.16793 0.253399,10.70265 0.840041,13.39079 2.055522,27.08793 8.884285,34.44706 6.839351,6.12849 15.511006,5.7364 24.165898,6.8596 9.438651,-0.0543 18.641611,-0.40886 26.328051,-4.19811 7.96073,-3.53591 10.11971,-18.81076 10.34642,-22.76278 1.13072,-8.62566 0.88297,-19.21741 1.56346,-27.21638 6.76477,-6.53434 15.00304,-14.434082 12.1447,-31.693661 -3.76172,-13.532123 -14.13494,-21.02337 -27.25728,-19.111836 -0.97601,0.142175 -3.24686,1.272249 -3.24686,1.272249 3.26855,1.603778 9.14369,1.256879 11.25546,4.958969 -3.94963,-0.02584 -5.26883,0.777948 -4.49753,1.578721 1.76837,0.909106 3.33894,1.478192 4.59334,2.644133 12.51179,11.629467 5.96984,30.112225 -4.7544,34.216875 -12.23132,1.10197 -26.072166,-0.94444 -50.572152,0.2703 -12.713397,-6.78748 -14.684354,-25.19452 5.825934,-38.589557 0.06637,-1.099479 -2.924512,-1.226303 -4.830113,-1.698405 1.663415,-2.740633 5.943349,-2.903072 9.103663,-4.318423 z"
       id="path613"
       sodipodi:nodetypes="csscsccccccscccsccccc"
       inkscape:original-d="m 80.202482,62.913275 c 1.659957,-3.301456 -14.34636,-2.489474 -23.936876,8.526572 -2.979881,3.422808 -5.922998,7.642748 -6.701353,13.28254 -2.970121,21.520843 11.630873,27.098923 11.331954,30.829483 0.59506,6.07548 -0.03108,6.16793 0.253399,10.70265 0.840041,13.39079 2.055522,27.08793 8.884285,34.44706 6.839351,6.12849 15.511006,5.7364 24.165898,6.8596 9.438651,-0.0543 18.641611,-0.40886 26.328051,-4.19811 7.96073,-3.53591 10.11971,-18.81076 10.34642,-22.76278 1.13072,-8.62566 0.88297,-19.21741 1.56346,-27.21638 6.76477,-6.53434 15.00304,-14.434082 12.1447,-31.693661 -3.76172,-13.532123 -14.13494,-21.02337 -27.25728,-19.111836 -0.97601,0.142175 -3.24686,1.272249 -3.24686,1.272249 3.26855,1.603778 9.14369,1.256879 11.25546,4.958969 -3.94963,-0.02584 -5.26883,0.777948 -4.49753,1.578721 1.76837,0.909106 3.33894,1.478192 4.59334,2.644133 12.51179,11.629467 5.96984,30.112225 -4.7544,34.216875 -12.23132,1.10197 -26.072166,-0.94444 -50.572152,0.2703 -12.713397,-6.78748 -14.684354,-25.19452 5.825934,-38.589557 0.06637,-1.099479 -2.924512,-1.226303 -4.830113,-1.698405 1.663415,-2.740633 5.943349,-2.903072 9.103663,-4.318423 z" />
    <path
       style="fill:#ffffff;fill-opacity:0;stroke:url(#linearGradient18775);stroke-width:4;stroke-linecap:butt;stroke-linejoin:miter;stroke-miterlimit:4;stroke-dasharray:none;stroke-opacity:1"
       d="m 80.299964,135.27845 c -7.519942,0.7329 -10.301999,5.22843 -10.430319,11.01959 -0.144291,4.81279 4.327649,10.81413 10.355753,10.57365 6.921881,-0.52729 10.548147,-7.05118 9.300788,-12.31868 -0.855817,-5.02019 -4.611808,-9.03626 -9.226222,-9.27456 z"
       id="path3575"
       sodipodi:nodetypes="ccccc"
       inkscape:original-d="m 79.24163,135.27845 c -7.519942,0.7329 -10.301999,5.22843 -10.430319,11.01959 -0.144291,4.81279 4.327649,10.81413 10.355753,10.57365 6.921881,-0.52729 10.548147,-7.05118 9.300788,-12.31868 -0.855817,-5.02019 -4.611808,-9.03626 -9.226222,-9.27456 z" />
    <path
       style="fill:#ffffff;fill-opacity:0;stroke:url(#linearGradient24384);stroke-width:4;stroke-linecap:butt;stroke-linejoin:miter;stroke-miterlimit:4;stroke-dasharray:none;stroke-opacity:1"
       d="m 114.64935,134.85712 c -6.3733,0.24027 -10.18479,4.55703 -10.01458,11.11004 0.574,5.96166 5.31375,10.77202 10.78662,10.01606 7.90062,-0.73915 9.03827,-7.2634 8.7163,-10.87977 -0.0404,-4.98883 -2.40241,-9.87967 -9.48834,-10.24633 z"
       id="path6842"
       sodipodi:nodetypes="ccccc" />
  </g>
</svg>
